<svg width="128" height="128" viewBox="0 0 128 128" fill="none" xmlns="http://www.w3.org/2000/svg">
<rect width="128" height="128" fill="#F6FFD9"/>
<path d="M51.4702 29.3145C43.0726 33.14 41.673 37.1523 41.673 57.12C41.673 70.3696 41.9529 73.3554 43.4458 76.6211C45.5919 81.2865 49.1375 84.2723 54.456 85.6719L58.4682 86.6983V91.6436C58.4682 95.3758 58.9348 97.0554 60.3344 98.455C64.7198 102.84 69.6651 99.2947 69.6651 91.6436V86.6983L73.7706 85.5786C79.0891 84.179 83.1946 80.6333 85.0607 75.7814C86.1804 72.7955 86.4603 69.1566 86.2737 59.7326L85.9938 47.6959L82.5415 45.27C77.8761 42.1908 76.1966 39.4849 75.4501 34.353C74.8903 30.5275 74.4237 29.8743 71.5312 28.8479C66.4927 27.0751 55.8556 27.2617 51.4702 29.3145ZM65.093 38.7385C66.306 42.5641 67.8923 44.8967 71.0647 47.7893L71.6457 48.3208C74.0601 50.5298 75.3874 53.6844 75.2783 56.955L75.0769 62.9983L74.9042 69.9074C74.8355 72.6556 73.6914 75.2672 71.7178 77.181C68.8253 80.1668 68.4521 80.2601 61.2675 80.2601C54.0828 80.2601 53.7096 80.1668 50.8171 77.181C48.8488 75.2724 47.7379 72.6477 47.7379 69.9061V57.0267C47.7379 39.9515 47.7379 39.7648 50.0706 37.3389C53.0564 34.0731 55.2958 33.1401 59.7745 33.42C63.3202 33.6066 63.5068 33.6999 65.093 38.7385Z" fill="#0D0A0B" fill-opacity="0.77"/>
<path d="M65.093 38.7385C66.306 42.5641 67.8923 44.8967 71.0647 47.7893L71.6457 48.3208C74.0601 50.5298 75.3874 53.6844 75.2783 56.955L75.0769 62.9983L74.9042 69.9074C74.8355 72.6556 73.6914 75.2672 71.7178 77.181C68.8253 80.1668 68.4521 80.2601 61.2675 80.2601C54.0828 80.2601 53.7096 80.1668 50.8171 77.181C48.8488 75.2724 47.7379 72.6477 47.7379 69.9061V57.0267C47.7379 39.9515 47.7379 39.7648 50.0706 37.3389C53.0564 34.0731 55.2958 33.1401 59.7745 33.42C63.3202 33.6066 63.5068 33.6999 65.093 38.7385Z" fill="#FFE6D9"/>
<path d="M54.1733 69.6287C54.0162 69.6287 53.9376 69.5502 53.9376 69.3934V53.3968L53.8029 46.205C53.8029 46.0482 53.8815 45.9698 54.0386 45.9698H56.5304H59.0222C59.1793 45.9698 59.2579 46.0482 59.2579 46.205L59.0895 53.5312V64.8902C59.0895 65.047 59.1681 65.1254 59.3252 65.1254H63.6353L69.6627 64.9574C69.8198 64.9574 69.8984 65.0358 69.8984 65.1926V69.5278C69.8984 69.6847 69.8198 69.7631 69.6627 69.7631L63.6353 69.6287H54.1733Z" fill="#FF3363" fill-opacity="0.84"/>
<path d="M53.3029 46.205H53.3028L53.303 46.2144L53.4376 53.4015V69.3934C53.4376 69.5491 53.477 69.7577 53.6433 69.9237C53.8095 70.0896 54.0179 70.1287 54.1733 70.1287H63.6297L69.6515 70.263L69.6515 70.2631H69.6627C69.8181 70.2631 70.0265 70.224 70.1927 70.0582C70.359 69.8922 70.3984 69.6836 70.3984 69.5278V65.1926C70.3984 65.0369 70.359 64.8283 70.1927 64.6623C70.0265 64.4965 69.8181 64.4574 69.6627 64.4574V64.4572L69.6487 64.4576L63.6283 64.6254H59.5895V53.537L59.7577 46.2165L59.7579 46.2165V46.205C59.7579 46.0493 59.7185 45.8407 59.5521 45.6747C59.386 45.5089 59.1776 45.4698 59.0222 45.4698H56.5304H54.0386C53.8832 45.4698 53.6748 45.5089 53.5086 45.6747C53.3423 45.8407 53.3029 46.0493 53.3029 46.205Z" stroke="#FF3363" stroke-opacity="0.84"/>
</svg>
